<?xml version="1.0" encoding="UTF-8" standalone="no"?>
<svg
   width="86.998001"
   height="86.998001"
   fill="none"
   viewBox="0 0 86.998001 86.998001"
   version="1.1"
   id="svg5"
   xml:space="preserve"
   xmlns="http://www.w3.org/2000/svg"
   xmlns:svg="http://www.w3.org/2000/svg"><defs
     id="defs5" /><rect
     width="86.998001"
     height="86.998001"
     x="0"
     y="0"
     fill="#ffffff"
     rx="12.000001"
     id="rect1"
     style="stroke-width:1"
     ry="12" /><path
     d="m 43.283672,15.389813 c -0.223503,0.0072 -0.448224,0.02504 -0.671875,0.05469 -1.184316,0.157069 -2.305793,0.625475 -3.25,1.357422 L 21.656719,30.536297 c -1.046023,0.807785 -1.657892,2.055333 -1.65625,3.376953 -0.0012,1.321514 0.610591,2.568871 1.65625,3.376953 l 7.132812,5.537109 h 0.002 c -5.127968,7.092958 -4.499149,17.080836 1.882813,23.466797 7.079957,7.092958 18.574339,7.092958 25.654297,0 6.381961,-6.385961 7.007828,-16.373839 1.880859,-23.466797 l 7.134766,-5.537109 c 1.045659,-0.808082 1.657434,-2.055439 1.65625,-3.376953 10e-4,-1.321479 -0.610712,-2.568772 -1.65625,-3.376953 L 47.637187,16.801922 c -1.248155,-0.967538 -2.788999,-1.46231 -4.353515,-1.412109 z m -7.449219,18.183593 c 1.669998,0 3.340283,0.493423 4.613281,1.482422 l 1.189453,0.917969 c 1.027999,0.796999 2.698564,0.796999 3.726563,0 l 1.1875,-0.917969 c 2.545997,-1.977998 6.680565,-1.977998 9.226562,0 1.131999,0.872999 1.732422,2.009158 1.732422,3.160156 0,1.149999 -0.600423,2.286017 -1.732422,3.166016 l -9.751953,7.560547 c -1.484242,1.158668 -3.566539,1.158668 -5.050781,0 L 31.221172,41.382 c -1.131999,-0.879999 -1.732422,-2.016017 -1.732422,-3.166016 0,-1.150998 0.600423,-2.287157 1.732422,-3.160156 1.272999,-0.988999 2.943283,-1.482422 4.613281,-1.482422 z"
     style="clip-rule:evenodd;fill:#1677ff;fill-opacity:1;fill-rule:evenodd"
     id="path7" /></svg>
